<svg width="34" height="37" viewBox="0 0 34 37" fill="none" xmlns="http://www.w3.org/2000/svg">
<path d="M16.9991 4.92128e-07C8.66233 -0.00116709 1.55558 6.59105 0.22079 15.5636C-1.11399 24.5361 3.71732 33.2396 11.6271 36.1116C12.479 36.2788 12.7839 35.7085 12.7839 35.2181C12.7839 34.7778 12.7703 33.6111 12.7652 32.06C8.03715 33.1746 7.03872 29.5744 7.03872 29.5744C6.72747 28.4541 6.05832 27.4925 5.15261 26.864C3.61919 25.7141 5.27018 25.7401 5.27018 25.7401C6.36176 25.9033 7.32249 26.6085 7.87188 27.6498C8.33691 28.5717 9.12036 29.2529 10.0482 29.5421C10.976 29.8313 11.9713 29.7045 12.8129 29.1899C12.892 28.2499 13.2756 27.3713 13.8948 26.7117C10.1226 26.2454 6.15615 24.6552 6.15615 17.5533C6.13522 15.7164 6.76083 13.9406 7.90425 12.5914C7.3869 10.9925 7.44782 9.23875 8.07463 7.68711C8.07463 7.68711 9.50072 7.1874 12.7465 9.58381C15.5302 8.75158 18.4681 8.75158 21.2518 9.58381C24.4993 7.18554 25.9237 7.68711 25.9237 7.68711C26.5534 9.23802 26.6143 10.993 26.094 12.5914C27.2416 13.9405 27.8667 15.7209 27.8387 17.5607C27.8387 24.6812 23.8689 26.2454 20.083 26.7043C20.8997 27.6146 21.3185 28.8635 21.2331 30.1336C21.2331 32.6117 21.2126 34.6106 21.2126 35.2181C21.2126 35.7141 21.5159 36.2899 22.3832 36.1079C30.2896 33.231 35.1157 24.527 33.7782 15.5569C32.4407 6.58672 25.3342 -0.00207907 16.9991 4.92128e-07Z" fill="#D9D9D9"/>
</svg>
