<svg width="31" height="34" viewBox="0 0 31 34" fill="none" xmlns="http://www.w3.org/2000/svg">
<path d="M17.2222 33.9519H10.3333V11.3173H17.2222V15.0897C18.6906 13.0437 20.9174 11.8239 23.293 11.7643C27.5651 11.7903 31.0123 15.5978 31 20.2768V33.9519H24.1111V21.2199C23.8356 19.1123 22.1852 17.5485 20.2412 17.5531C19.3909 17.5826 18.5883 17.9903 18.0186 18.6822C17.4489 19.3742 17.1613 20.2906 17.2222 21.2199V33.9519ZM6.88887 33.9519H0V11.3173H6.88887V33.9519ZM3.44444 7.54486C1.54213 7.54486 0 5.85588 0 3.77243C0 1.68897 1.54213 0 3.44444 0C5.34675 0 6.88887 1.68897 6.88887 3.77243C6.88887 4.77294 6.52598 5.73247 5.88002 6.43994C5.23406 7.14741 4.35796 7.54486 3.44444 7.54486Z" fill="#0A0A14"/>
</svg>
